<svg xmlns="http://www.w3.org/2000/svg" xmlns:xlink="http://www.w3.org/1999/xlink" viewBox="0 0 256 256" width="128px" height="128px">
  <style type="text/css">
    @keyframes ld-pulse
{
  0% {
    animation-timing-function: cubic-bezier(0.0413,0.3905,0.5086,0.6902);
    transform: scale(1);
  }
  24.3% {
    animation-timing-function: cubic-bezier(0.2248,0.6332,0.5246,1);
    transform: scale(0.8458);
  }
  55% {
    animation-timing-function: cubic-bezier(0.3036,0.3393,0.655,0.6144);
    transform: scale(0.8022);
  }
  70.2% {
    animation-timing-function: cubic-bezier(0.4464,0.2728,0.5562,0.7288);
    transform: scale(0.8294);
  }
  82.3% {
    animation-timing-function: cubic-bezier(0.6826,0.1845,1,0.7358);
    transform: scale(0.869);
  }
  100% {
    transform: scale(1);
  }
}
.ld.ld-pulse {
  animation: ld-pulse 0.5s infinite;
}
    @keyframes ld-move {
      0% { transform: translate(0,0) }
      100% { transform: translate(256px,0) }
    }
  </style>
  <defs><g id="id-0.22511611711283663">
    
<!-- Generator: Adobe Illustrator 21.0.0, SVG Export Plug-In . SVG Version: 6.00 Build 0)  -->


<path fill="none" stroke="#000000" stroke-width="8" stroke-linecap="round" stroke-linejoin="round" stroke-miterlimit="10" d="  M173.432,32.831c-1.41,5.261-8.528,3.354-9.938,8.616c-1.41,5.262,5.709,7.169,4.299,12.431c-1.41,5.263-8.529,3.356-9.939,8.619  c-1.411,5.265,5.708,7.172,4.297,12.437c-1.41,5.263-8.529,3.356-9.939,8.619c-1.411,5.267,5.707,7.174,4.296,12.441  c-1.411,5.267-8.53,3.359-9.941,8.626"/>
<path fill="none" stroke="#777777" stroke-width="8" stroke-linecap="round" stroke-linejoin="round" stroke-miterlimit="10" d="  M228.264,125.792c-1.41,5.261-8.528,3.354-9.938,8.616c-1.41,5.262,5.708,7.169,4.299,12.43c-1.41,5.263-8.529,3.356-9.939,8.619  c-1.411,5.265,5.708,7.172,4.297,12.437c-1.41,5.263-8.529,3.356-9.939,8.619c-1.411,5.267,5.707,7.174,4.296,12.441  s-8.53,3.359-9.941,8.626"/>
<path fill="none" stroke="#000000" stroke-width="8" stroke-linecap="round" stroke-linejoin="round" stroke-miterlimit="10" d="  M109.432,160.831c-1.41,5.261-8.528,3.354-9.938,8.616c-1.41,5.262,5.709,7.169,4.299,12.43c-1.41,5.263-8.529,3.356-9.939,8.619  c-1.411,5.265,5.708,7.172,4.297,12.437c-1.41,5.263-8.529,3.356-9.939,8.619c-1.411,5.267,5.707,7.174,4.296,12.441  s-8.53,3.359-9.941,8.626"/>
<path fill="none" stroke="#777777" stroke-width="8" stroke-linecap="round" stroke-linejoin="round" stroke-miterlimit="10" d="  M56.44,62.258c-1.41,5.261-8.528,3.354-9.938,8.616c-1.41,5.262,5.709,7.169,4.299,12.43c-1.41,5.263-8.529,3.356-9.939,8.619  c-1.411,5.265,5.708,7.172,4.297,12.437c-1.41,5.263-8.529,3.356-9.939,8.619c-1.411,5.267,5.707,7.174,4.296,12.441  c-1.411,5.267-8.53,3.359-9.941,8.626"/>


  </g></defs>
  <rect y="0" fill="#F1F2F3" width="256" height="256"/>
  <g>
    <use xlink:href="#id-0.22511611711283663" x="-256" y="-256"/><use xlink:href="#id-0.22511611711283663" x="0" y="-256"/><use xlink:href="#id-0.22511611711283663" x="256" y="-256"/><use xlink:href="#id-0.22511611711283663" x="-256" y="0"/><use xlink:href="#id-0.22511611711283663" x="0" y="0"/><use xlink:href="#id-0.22511611711283663" x="256" y="0"/><use xlink:href="#id-0.22511611711283663" x="-256" y="256"/><use xlink:href="#id-0.22511611711283663" x="0" y="256"/><use xlink:href="#id-0.22511611711283663" x="256" y="256"/>
    <animateTransform attributeName="transform" type="translate" dur="4s" repeatCount="indefinite" keyTimes="0;1" values="0;256"/>
  </g>
</svg>